<svg width="1087" height="311" viewBox="0 0 1087 311" fill="none" xmlns="http://www.w3.org/2000/svg">
<path d="M174.664 160.494C175.685 169.075 175.738 177.846 174.823 186.81C174.104 195.754 171.844 204.057 168.043 211.72C164.419 219.168 159.119 225.594 152.143 230.997C145.343 236.186 136.481 239.403 125.556 240.649C127.873 252.458 128.895 263.109 128.623 272.602C128.431 276.762 127.926 280.755 127.11 284.581C126.508 288.584 125.371 292.144 123.698 295.263C122.22 298.364 120.1 300.934 117.338 302.974C114.594 305.21 111.17 306.525 107.066 306.919C101.007 307.5 95.254 305.094 89.8055 299.7C84.5524 294.287 79.7957 286.855 75.5354 277.402C71.2939 268.145 67.7028 257.445 64.7621 245.301C61.8214 233.158 59.6436 220.744 58.2289 208.06C56.8141 195.376 56.2092 182.91 56.4141 170.662C56.8145 158.395 58.2256 147.412 60.6475 137.712C63.9793 125.164 69.0676 115.505 75.9124 108.733C82.9527 101.943 90.8325 97.7355 99.5518 96.1096C108.076 94.5025 115.763 94.4549 122.614 95.9668C129.661 97.46 135.814 99.9264 141.075 103.366C146.532 106.787 151.174 110.976 155.003 115.934C159.008 120.677 162.349 125.682 165.024 130.948C167.894 136.195 170.071 141.41 171.555 146.592C173.038 151.775 174.075 156.409 174.664 160.494ZM133.321 189.018C132.863 186.301 131.875 184.226 130.357 182.794C129.015 181.148 127.516 179.911 125.859 179.084C123.811 178.294 121.693 177.807 119.506 177.623C120.663 181.457 121.41 185.132 121.748 188.65C122.281 192.149 122.679 195.266 122.941 198.002C123.065 201.343 123.16 204.391 123.227 207.146C126.595 205.245 129.301 202.619 131.346 199.267C133.391 195.915 134.05 192.498 133.321 189.018Z" fill="url(#paint0_linear_176_105)"/>
<path d="M124.235 208.351C139.057 203.436 147.227 187.851 142.482 173.54C137.737 159.229 121.875 151.612 107.053 156.526C92.2305 161.44 84.0613 177.026 88.8062 191.337C93.5511 205.648 109.413 213.265 124.235 208.351Z" fill="#3F1D3A"/>
<ellipse cx="125.69" cy="150.733" rx="12.6133" ry="5.53358" transform="rotate(-49.5255 125.69 150.733)" fill="#3F1D3A"/>
<ellipse cx="106.047" cy="154.452" rx="8.24252" ry="3.61606" transform="rotate(-139.951 106.047 154.452)" fill="#3F1D3A"/>
<ellipse cx="130.704" cy="168.138" rx="7.0013" ry="3.07153" transform="rotate(-141.178 130.704 168.138)" fill="url(#paint1_linear_176_105)"/>
<ellipse cx="138.204" cy="180.158" rx="2.91076" ry="1.73672" transform="rotate(-99.5132 138.204 180.158)" fill="url(#paint2_linear_176_105)"/>
<ellipse cx="237.613" cy="110.406" rx="21.3464" ry="9.30679" transform="rotate(-49.8974 237.613 110.406)" fill="#F28A45"/>
<path d="M410.551 126.829C417.194 131.036 420.848 136.793 421.512 144.1C422.177 151.186 421.18 158.715 418.523 166.687C416.087 174.437 412.544 181.855 407.894 188.941C403.244 195.805 398.926 201.12 394.94 204.884C400.255 213.077 405.016 221.159 409.223 229.131C413.652 236.881 416.973 244.188 419.187 251.053C421.402 257.696 422.287 263.785 421.845 269.321C421.623 274.857 419.52 279.285 415.534 282.607C411.769 285.928 407.341 287.811 402.248 288.254C397.155 288.696 391.73 287.811 385.972 285.596C380.215 283.382 374.236 279.95 368.036 275.3C362.058 270.65 356.3 265.003 350.764 258.36C346.336 263.674 341.796 268.546 337.146 272.975C332.718 277.403 328.289 280.946 323.86 283.603C319.432 286.261 315.003 287.811 310.574 288.254C306.146 288.475 301.828 287.036 297.62 283.936C288.985 277.957 284.999 268.435 285.663 255.371C286.327 242.085 293.303 225.366 306.589 205.216C305.924 203.887 304.485 201.341 302.271 197.577C300.056 193.812 297.62 189.384 294.963 184.291C292.528 179.198 290.313 173.773 288.32 168.015C286.549 162.258 285.442 156.611 284.999 151.076C284.777 145.54 285.774 140.447 287.988 135.797C290.202 130.925 294.299 127.05 300.278 124.171C306.699 121.071 314.449 122.511 323.528 128.489C332.607 134.247 341.907 143.104 351.429 155.061C351.872 155.504 352.093 155.836 352.093 156.058C352.979 154.951 353.754 154.065 354.418 153.401C355.304 152.515 356.079 151.629 356.743 150.743C359.622 147.422 363.054 143.768 367.04 139.782C371.026 135.575 375.344 132.032 379.994 129.154C384.865 126.054 389.847 124.061 394.94 123.175C400.255 122.289 405.459 123.507 410.551 126.829ZM519.421 235.442C519.864 238.32 521.414 240.203 524.072 241.088C526.95 241.974 529.497 241.531 531.711 239.76C533.925 237.767 536.693 235.663 540.015 233.449C543.558 231.234 547.322 229.574 551.308 228.467C555.294 227.359 559.279 227.359 563.265 228.467C567.472 229.352 571.237 232.009 574.558 236.438C576.994 239.76 578.212 243.524 578.212 247.731C578.212 251.938 577.105 256.146 574.89 260.353C572.898 264.56 569.908 268.657 565.922 272.642C561.937 276.407 557.176 279.396 551.64 281.611C545.661 284.268 538.686 286.15 530.715 287.257C522.964 288.364 514.882 288.143 506.468 286.593C498.275 284.821 489.971 281.5 481.556 276.628C473.142 271.535 465.392 264.228 458.306 254.706C452.77 247.399 448.452 239.206 445.352 230.127C442.473 220.827 440.923 211.527 440.702 202.227C440.48 192.705 441.698 183.405 444.356 174.326C447.013 165.026 451.109 156.833 456.645 149.747C462.181 142.44 469.267 136.461 477.903 131.811C486.539 126.939 496.835 124.171 508.793 123.507C520.75 122.843 530.825 123.839 539.018 126.496C547.211 128.932 553.965 132.364 559.279 136.793C564.815 141.222 568.912 146.315 571.569 152.072C574.448 157.829 576.33 163.697 577.216 169.676C578.323 175.433 578.544 181.08 577.88 186.616C577.216 192.151 576.108 196.802 574.558 200.566C573.23 203.887 571.126 207.209 568.247 210.53C565.59 213.852 562.158 216.841 557.951 219.498C553.965 221.934 549.315 223.927 544.001 225.477C538.686 227.027 532.818 227.692 526.397 227.47C524.182 227.249 522.3 228.024 520.75 229.795C519.421 231.345 518.979 233.117 519.421 235.11V235.442ZM513.775 178.312C515.325 180.305 516.543 182.63 517.429 185.287C518.314 187.723 518.868 190.601 519.089 193.923C519.311 197.244 518.979 201.23 518.093 205.88C519.864 204.773 521.304 203.445 522.411 201.895C523.518 200.566 524.404 198.905 525.068 196.912C525.732 194.698 525.954 192.041 525.732 188.941C525.289 186.726 524.404 184.401 523.075 181.966C521.968 179.53 518.868 178.312 513.775 178.312ZM675.765 235.442C676.208 238.32 677.758 240.203 680.416 241.088C683.294 241.974 685.841 241.531 688.055 239.76C690.269 237.767 693.037 235.663 696.359 233.449C699.902 231.234 703.666 229.574 707.652 228.467C711.638 227.359 715.623 227.359 719.609 228.467C723.816 229.352 727.581 232.009 730.902 236.438C733.338 239.76 734.556 243.524 734.556 247.731C734.556 251.938 733.449 256.146 731.235 260.353C729.242 264.56 726.252 268.657 722.266 272.642C718.281 276.407 713.52 279.396 707.984 281.611C702.005 284.268 695.03 286.15 687.059 287.257C679.308 288.364 671.226 288.143 662.812 286.593C654.619 284.821 646.315 281.5 637.9 276.628C629.486 271.535 621.736 264.228 614.65 254.706C609.114 247.399 604.796 239.206 601.696 230.127C598.817 220.827 597.267 211.527 597.046 202.227C596.824 192.705 598.042 183.405 600.7 174.326C603.357 165.026 607.453 156.833 612.989 149.747C618.525 142.44 625.611 136.461 634.247 131.811C642.883 126.939 653.179 124.171 665.137 123.507C677.094 122.843 687.169 123.839 695.362 126.496C703.555 128.932 710.309 132.364 715.623 136.793C721.159 141.222 725.256 146.315 727.913 152.072C730.792 157.829 732.674 163.697 733.56 169.676C734.667 175.433 734.888 181.08 734.224 186.616C733.56 192.151 732.452 196.802 730.902 200.566C729.574 203.887 727.47 207.209 724.591 210.53C721.934 213.852 718.502 216.841 714.295 219.498C710.309 221.934 705.659 223.927 700.345 225.477C695.03 227.027 689.162 227.692 682.741 227.47C680.526 227.249 678.644 228.024 677.094 229.795C675.765 231.345 675.323 233.117 675.765 235.11V235.442ZM670.119 178.312C671.669 180.305 672.887 182.63 673.773 185.287C674.658 187.723 675.212 190.601 675.433 193.923C675.655 197.244 675.323 201.23 674.437 205.88C676.208 204.773 677.648 203.445 678.755 201.895C679.862 200.566 680.748 198.905 681.412 196.912C682.076 194.698 682.298 192.041 682.076 188.941C681.633 186.726 680.748 184.401 679.419 181.966C678.312 179.53 675.212 178.312 670.119 178.312ZM753.39 174.99C753.611 170.783 754.497 166.022 756.047 160.708C757.819 155.172 760.808 149.968 765.015 145.097C769.444 140.004 775.423 135.575 782.951 131.811C790.48 127.825 800.223 125.168 812.181 123.839C825.688 122.289 836.981 122.732 846.06 125.168C855.139 127.382 862.335 130.814 867.65 135.465C872.964 139.893 876.507 145.097 878.278 151.076C880.271 157.054 880.936 162.922 880.271 168.68C879.607 172.887 878.389 176.319 876.618 178.976C875.068 181.412 873.075 183.516 870.639 185.287C868.425 186.837 865.989 188.055 863.332 188.941C860.896 189.605 858.46 190.269 856.024 190.934C855.139 191.155 854.696 191.709 854.696 192.594C854.696 193.259 855.139 193.702 856.024 193.923C859.124 194.809 862.557 196.248 866.321 198.241C870.307 200.234 873.96 203.112 877.282 206.877C880.603 210.42 883.15 214.959 884.921 220.495C886.914 226.031 887.579 232.784 886.914 240.756C886.029 250.942 882.375 259.467 875.953 266.332C869.753 273.196 862.114 278.4 853.035 281.943C844.178 285.486 834.656 287.589 824.47 288.254C814.284 288.696 804.762 287.811 795.905 285.596C787.269 283.382 780.073 279.839 774.315 274.968C768.558 270.096 765.569 264.117 765.347 257.031C765.126 250.167 766.122 244.853 768.337 241.088C770.551 237.324 773.319 234.445 776.64 232.452C779.962 230.459 783.616 229.131 787.601 228.467C791.587 227.581 795.462 226.584 799.227 225.477C790.369 225.256 782.398 223.263 775.312 219.498C772.212 217.948 769.222 215.956 766.344 213.52C763.687 211.084 761.251 208.095 759.037 204.552C757.044 201.009 755.494 196.802 754.386 191.93C753.279 187.059 752.947 181.412 753.39 174.99Z" fill="url(#paint3_linear_176_105)"/>
<path d="M232.463 288.866C227.39 288.866 223.114 286.692 219.636 282.344C216.158 277.996 213.259 272.416 210.94 265.604C208.621 258.792 206.882 251.255 205.722 242.994C204.563 234.733 203.693 226.689 203.113 218.863C202.534 211.036 202.244 203.935 202.244 197.558C202.244 191.18 202.316 186.47 202.461 183.426C202.751 176.18 203.548 169.658 204.853 163.86C206.157 157.918 207.969 152.918 210.288 148.86C212.752 144.657 215.723 141.541 219.201 139.512C222.68 137.483 226.81 136.758 231.593 137.338C235.071 137.772 238.115 139.149 240.724 141.468C243.333 143.642 245.579 146.613 247.463 150.382C249.347 154.15 250.797 158.643 251.811 163.86C252.971 168.933 253.84 174.586 254.42 180.818C254.71 184.296 254.927 189.369 255.072 196.036C255.362 202.703 255.362 210.022 255.072 217.993C254.927 225.964 254.42 234.153 253.55 242.559C252.826 250.966 251.594 258.647 249.855 265.604C248.115 272.416 245.796 277.996 242.898 282.344C240.144 286.692 236.666 288.866 232.463 288.866Z" fill="url(#paint4_linear_176_105)"/>
<defs>
<linearGradient id="paint0_linear_176_105" x1="85.4431" y1="23.0755" x2="98.4423" y2="253.591" gradientUnits="userSpaceOnUse">
<stop stop-color="#E8A12C"/>
<stop offset="1" stop-color="#FF6A67"/>
</linearGradient>
<linearGradient id="paint1_linear_176_105" x1="130.704" y1="165.067" x2="130.704" y2="171.21" gradientUnits="userSpaceOnUse">
<stop stop-color="#F7931A"/>
<stop offset="1" stop-color="#EA5A57"/>
</linearGradient>
<linearGradient id="paint2_linear_176_105" x1="138.204" y1="178.421" x2="138.204" y2="181.894" gradientUnits="userSpaceOnUse">
<stop stop-color="#F7931A"/>
<stop offset="1" stop-color="#EA5A57"/>
</linearGradient>
<linearGradient id="paint3_linear_176_105" x1="743.499" y1="38.5857" x2="743.999" y2="260.586" gradientUnits="userSpaceOnUse">
<stop stop-color="#E8A12C"/>
<stop offset="1" stop-color="#FF6A67"/>
</linearGradient>
<linearGradient id="paint4_linear_176_105" x1="232.203" y1="126.083" x2="232.203" y2="236.083" gradientUnits="userSpaceOnUse">
<stop stop-color="#E8A12C"/>
<stop offset="1" stop-color="#FF6A67"/>
</linearGradient>
</defs>
</svg>
